<svg id="ix-inline-icon-sprite" aria-hidden="true" focusable="false" style="position:absolute;width:0;height:0;overflow:hidden;left:-9999px;top:-9999px;">
  <defs>
    <symbol id="arrow_back_ios" viewBox="0 0 24 24"><path d="M15 6l-6 6 6 6" fill="none" stroke="currentColor" stroke-width="2" stroke-linecap="round" stroke-linejoin="round"/></symbol>
    <symbol id="arrow_forward_ios" viewBox="0 0 24 24"><path d="M9 6l6 6-6 6" fill="none" stroke="currentColor" stroke-width="2" stroke-linecap="round" stroke-linejoin="round"/></symbol>
    <symbol id="fa-arrow-right" viewBox="0 0 24 24"><path d="M5 12h14" fill="none" stroke="currentColor" stroke-width="2" stroke-linecap="round" stroke-linejoin="round"/><path d="M13 6l6 6-6 6" fill="none" stroke="currentColor" stroke-width="2" stroke-linecap="round" stroke-linejoin="round"/></symbol>
    <symbol id="fa-arrow-circle-down" viewBox="0 0 24 24"><path d="M12 3a9 9 0 1 0 0 18a9 9 0 0 0 0-18" fill="none" stroke="currentColor" stroke-width="2" stroke-linecap="round" stroke-linejoin="round"/><path d="M8 11l4 4 4-4" fill="none" stroke="currentColor" stroke-width="2" stroke-linecap="round" stroke-linejoin="round"/></symbol>
    <symbol id="fa-arrow-circle-up" viewBox="0 0 24 24"><path d="M12 3a9 9 0 1 0 0 18a9 9 0 0 0 0-18" fill="none" stroke="currentColor" stroke-width="2" stroke-linecap="round" stroke-linejoin="round"/><path d="M8 13l4-4 4 4" fill="none" stroke="currentColor" stroke-width="2" stroke-linecap="round" stroke-linejoin="round"/></symbol>
    <symbol id="keyboard_arrow_down" viewBox="0 0 24 24"><path d="M6 9l6 6 6-6" fill="none" stroke="currentColor" stroke-width="2" stroke-linecap="round" stroke-linejoin="round"/></symbol>
    <symbol id="fa-location-arrow" viewBox="0 0 24 24"><path d="M3 11l18-8-8 18-2-7-8-3z" fill="none" stroke="currentColor" stroke-width="2" stroke-linecap="round" stroke-linejoin="round"/></symbol>
    <symbol id="fa-rotate-left" viewBox="0 0 24 24"><path d="M8 8H4v4" fill="none" stroke="currentColor" stroke-width="2" stroke-linecap="round" stroke-linejoin="round"/><path d="M4 12a8 8 0 1 0 2.3-5.7" fill="none" stroke="currentColor" stroke-width="2" stroke-linecap="round" stroke-linejoin="round"/></symbol>
    <symbol id="fa-thumbs-up" viewBox="0 0 24 24"><path d="M7 11h3v8H7z" fill="none" stroke="currentColor" stroke-width="2" stroke-linecap="round" stroke-linejoin="round"/><path d="M10 19h6.5a2 2 0 0 0 2-1.6l.8-4A2 2 0 0 0 17.3 11H14V7.5A1.5 1.5 0 0 0 12.5 6L10 11z" fill="none" stroke="currentColor" stroke-width="2" stroke-linecap="round" stroke-linejoin="round"/></symbol>
    <symbol id="fa-user" viewBox="0 0 24 24"><path d="M12 12a3.5 3.5 0 1 0 0-7 3.5 3.5 0 0 0 0 7" fill="none" stroke="currentColor" stroke-width="2" stroke-linecap="round" stroke-linejoin="round"/><path d="M5 20a7 7 0 0 1 14 0" fill="none" stroke="currentColor" stroke-width="2" stroke-linecap="round" stroke-linejoin="round"/></symbol>
    <symbol id="fa-user-circle-o" viewBox="0 0 24 24"><path d="M12 2.5a9.5 9.5 0 1 0 0 19 9.5 9.5 0 0 0 0-19" fill="none" stroke="currentColor" stroke-width="2" stroke-linecap="round" stroke-linejoin="round"/><path d="M12 12a3.2 3.2 0 1 0 0-6.4 3.2 3.2 0 0 0 0 6.4" fill="none" stroke="currentColor" stroke-width="2" stroke-linecap="round" stroke-linejoin="round"/><path d="M6.6 18.6a6.8 6.8 0 0 1 10.8 0" fill="none" stroke="currentColor" stroke-width="2" stroke-linecap="round" stroke-linejoin="round"/></symbol>
    <symbol id="fa-whatsapp" viewBox="0 0 24 24"><path d="M12 3a8.8 8.8 0 0 0-7.7 13l-.8 3.6 3.7-1a8.8 8.8 0 1 0 4.8-15.6" fill="none" stroke="currentColor" stroke-width="2" stroke-linecap="round" stroke-linejoin="round"/><path d="M9 8.5c-.3 0-.7.1-.9.5-.4.6-1 1.7-1 3 0 1.9 1.4 3.8 3.3 4.9 1.6 1 3.1 1.3 4.3.7.8-.4 1.3-1.2 1.4-1.9 0-.2-.1-.3-.2-.4l-1.8-.9c-.2-.1-.4 0-.5.1l-.7.9c-.1.1-.3.2-.4.1-.6-.2-2.1-1.3-2.6-2.5-.1-.2 0-.3.1-.4l.6-.7c.1-.1.2-.3.1-.5l-.8-1.8c-.1-.2-.3-.2-.5-.2z" fill="none" stroke="currentColor" stroke-width="2" stroke-linecap="round" stroke-linejoin="round"/></symbol>
    <symbol id="fa-linkedin-square" viewBox="0 0 24 24"><path d="M5 3h14a2 2 0 0 1 2 2v14a2 2 0 0 1-2 2H5a2 2 0 0 1-2-2V5a2 2 0 0 1 2-2z" fill="none" stroke="currentColor" stroke-width="2" stroke-linecap="round" stroke-linejoin="round"/><path d="M8 10v7" fill="none" stroke="currentColor" stroke-width="2" stroke-linecap="round" stroke-linejoin="round"/><path d="M8 7.5h.01" fill="none" stroke="currentColor" stroke-width="2" stroke-linecap="round" stroke-linejoin="round"/><path d="M12 17v-4.2c0-1.3.8-2.3 2-2.3s2 1 2 2.3V17" fill="none" stroke="currentColor" stroke-width="2" stroke-linecap="round" stroke-linejoin="round"/><path d="M12 10v1.2" fill="none" stroke="currentColor" stroke-width="2" stroke-linecap="round" stroke-linejoin="round"/></symbol>
    <symbol id="fa-balance-scale" viewBox="0 0 24 24"><path d="M12 5v14" fill="none" stroke="currentColor" stroke-width="2" stroke-linecap="round" stroke-linejoin="round"/><path d="M6 7h12" fill="none" stroke="currentColor" stroke-width="2" stroke-linecap="round" stroke-linejoin="round"/><path d="M7 7l-3 5h6l-3-5z" fill="none" stroke="currentColor" stroke-width="2" stroke-linecap="round" stroke-linejoin="round"/><path d="M17 7l-3 5h6l-3-5z" fill="none" stroke="currentColor" stroke-width="2" stroke-linecap="round" stroke-linejoin="round"/><path d="M8 20h8" fill="none" stroke="currentColor" stroke-width="2" stroke-linecap="round" stroke-linejoin="round"/></symbol>
    <symbol id="code" viewBox="0 0 24 24"><path d="M8 8l-4 4 4 4" fill="none" stroke="currentColor" stroke-width="2" stroke-linecap="round" stroke-linejoin="round"/><path d="M16 8l4 4-4 4" fill="none" stroke="currentColor" stroke-width="2" stroke-linecap="round" stroke-linejoin="round"/><path d="M14 5l-4 14" fill="none" stroke="currentColor" stroke-width="2" stroke-linecap="round" stroke-linejoin="round"/></symbol>
    <symbol id="code_off" viewBox="0 0 24 24"><path d="M8 8l-4 4 4 4" fill="none" stroke="currentColor" stroke-width="2" stroke-linecap="round" stroke-linejoin="round"/><path d="M16 8l4 4-4 4" fill="none" stroke="currentColor" stroke-width="2" stroke-linecap="round" stroke-linejoin="round"/><path d="M14 5l-4 14" fill="none" stroke="currentColor" stroke-width="2" stroke-linecap="round" stroke-linejoin="round"/><path d="M4 4l16 16" fill="none" stroke="currentColor" stroke-width="2" stroke-linecap="round" stroke-linejoin="round"/></symbol>
    <symbol id="rocket_launch" viewBox="0 0 24 24"><path d="M6 14l4 4" fill="none" stroke="currentColor" stroke-width="2" stroke-linecap="round" stroke-linejoin="round"/><path d="M10 18l-4 2 2-4" fill="none" stroke="currentColor" stroke-width="2" stroke-linecap="round" stroke-linejoin="round"/><path d="M14 10l4 4" fill="none" stroke="currentColor" stroke-width="2" stroke-linecap="round" stroke-linejoin="round"/><path d="M13 11l6-6a3 3 0 0 0-4-4l-6 6" fill="none" stroke="currentColor" stroke-width="2" stroke-linecap="round" stroke-linejoin="round"/><path d="M9 15l-6 6" fill="none" stroke="currentColor" stroke-width="2" stroke-linecap="round" stroke-linejoin="round"/></symbol>
    <symbol id="rocket-launch" viewBox="0 0 24 24"><path d="M6 14l4 4" fill="none" stroke="currentColor" stroke-width="2" stroke-linecap="round" stroke-linejoin="round"/><path d="M10 18l-4 2 2-4" fill="none" stroke="currentColor" stroke-width="2" stroke-linecap="round" stroke-linejoin="round"/><path d="M14 10l4 4" fill="none" stroke="currentColor" stroke-width="2" stroke-linecap="round" stroke-linejoin="round"/><path d="M13 11l6-6a3 3 0 0 0-4-4l-6 6" fill="none" stroke="currentColor" stroke-width="2" stroke-linecap="round" stroke-linejoin="round"/><path d="M9 15l-6 6" fill="none" stroke="currentColor" stroke-width="2" stroke-linecap="round" stroke-linejoin="round"/></symbol>
    <symbol id="lightbulb-filament" viewBox="0 0 24 24"><path d="M9 18h6" fill="none" stroke="currentColor" stroke-width="2" stroke-linecap="round" stroke-linejoin="round"/><path d="M10 21h4" fill="none" stroke="currentColor" stroke-width="2" stroke-linecap="round" stroke-linejoin="round"/><path d="M12 3a6 6 0 0 0-3.7 10.7c.8.7 1.2 1.4 1.2 2.3h5c0-.9.4-1.6 1.2-2.3A6 6 0 0 0 12 3z" fill="none" stroke="currentColor" stroke-width="2" stroke-linecap="round" stroke-linejoin="round"/><path d="M10.5 14h3" fill="none" stroke="currentColor" stroke-width="2" stroke-linecap="round" stroke-linejoin="round"/></symbol>
    <symbol id="sticky" viewBox="0 0 24 24"><path d="M5 4h14v11l-5 5H5z" fill="none" stroke="currentColor" stroke-width="2" stroke-linecap="round" stroke-linejoin="round"/><path d="M14 20v-5h5" fill="none" stroke="currentColor" stroke-width="2" stroke-linecap="round" stroke-linejoin="round"/></symbol>
    <symbol id="buildings" viewBox="0 0 24 24"><path d="M4 20V8l4-2v14" fill="none" stroke="currentColor" stroke-width="2" stroke-linecap="round" stroke-linejoin="round"/><path d="M10 20V4l4-2v18" fill="none" stroke="currentColor" stroke-width="2" stroke-linecap="round" stroke-linejoin="round"/><path d="M16 20V10l4-2v12" fill="none" stroke="currentColor" stroke-width="2" stroke-linecap="round" stroke-linejoin="round"/><path d="M2 20h20" fill="none" stroke="currentColor" stroke-width="2" stroke-linecap="round" stroke-linejoin="round"/></symbol>
    <symbol id="buildings-fill" viewBox="0 0 24 24"><path d="M4 20V8l4-2v14" fill="none" stroke="currentColor" stroke-width="2" stroke-linecap="round" stroke-linejoin="round"/><path d="M10 20V4l4-2v18" fill="none" stroke="currentColor" stroke-width="2" stroke-linecap="round" stroke-linejoin="round"/><path d="M16 20V10l4-2v12" fill="none" stroke="currentColor" stroke-width="2" stroke-linecap="round" stroke-linejoin="round"/><path d="M2 20h20" fill="none" stroke="currentColor" stroke-width="2" stroke-linecap="round" stroke-linejoin="round"/></symbol>
    <symbol id="globe2" viewBox="0 0 24 24"><path d="M12 3a9 9 0 1 0 0 18 9 9 0 0 0 0-18" fill="none" stroke="currentColor" stroke-width="2" stroke-linecap="round" stroke-linejoin="round"/><path d="M3 12h18" fill="none" stroke="currentColor" stroke-width="2" stroke-linecap="round" stroke-linejoin="round"/><path d="M12 3c2.8 2.5 2.8 15.5 0 18" fill="none" stroke="currentColor" stroke-width="2" stroke-linecap="round" stroke-linejoin="round"/><path d="M12 3c-2.8 2.5-2.8 15.5 0 18" fill="none" stroke="currentColor" stroke-width="2" stroke-linecap="round" stroke-linejoin="round"/></symbol>
    <symbol id="apps" viewBox="0 0 24 24"><path d="M5 5h5v5H5z" fill="none" stroke="currentColor" stroke-width="2" stroke-linecap="round" stroke-linejoin="round"/><path d="M14 5h5v5h-5z" fill="none" stroke="currentColor" stroke-width="2" stroke-linecap="round" stroke-linejoin="round"/><path d="M5 14h5v5H5z" fill="none" stroke="currentColor" stroke-width="2" stroke-linecap="round" stroke-linejoin="round"/><path d="M14 14h5v5h-5z" fill="none" stroke="currentColor" stroke-width="2" stroke-linecap="round" stroke-linejoin="round"/></symbol>
    <symbol id="phone_iphone" viewBox="0 0 24 24"><path d="M8 3h8a2 2 0 0 1 2 2v14a2 2 0 0 1-2 2H8a2 2 0 0 1-2-2V5a2 2 0 0 1 2-2" fill="none" stroke="currentColor" stroke-width="2" stroke-linecap="round" stroke-linejoin="round"/><path d="M11 6h2" fill="none" stroke="currentColor" stroke-width="2" stroke-linecap="round" stroke-linejoin="round"/><path d="M12 18h.01" fill="none" stroke="currentColor" stroke-width="2" stroke-linecap="round" stroke-linejoin="round"/></symbol>
    <symbol id="feedback" viewBox="0 0 24 24"><path d="M4 5h16v11H9l-5 4z" fill="none" stroke="currentColor" stroke-width="2" stroke-linecap="round" stroke-linejoin="round"/></symbol>
    <symbol id="cursor" viewBox="0 0 24 24"><path d="M4 3l13 7-6 2-2 6-5-15z" fill="none" stroke="currentColor" stroke-width="2" stroke-linecap="round" stroke-linejoin="round"/></symbol>
    <symbol id="robot" viewBox="0 0 24 24"><path d="M9 8h6a3 3 0 0 1 3 3v5H6v-5a3 3 0 0 1 3-3" fill="none" stroke="currentColor" stroke-width="2" stroke-linecap="round" stroke-linejoin="round"/><path d="M10 5h4" fill="none" stroke="currentColor" stroke-width="2" stroke-linecap="round" stroke-linejoin="round"/><path d="M12 3v2" fill="none" stroke="currentColor" stroke-width="2" stroke-linecap="round" stroke-linejoin="round"/><path d="M9.5 12h.01" fill="none" stroke="currentColor" stroke-width="2" stroke-linecap="round" stroke-linejoin="round"/><path d="M14.5 12h.01" fill="none" stroke="currentColor" stroke-width="2" stroke-linecap="round" stroke-linejoin="round"/><path d="M8 16v2" fill="none" stroke="currentColor" stroke-width="2" stroke-linecap="round" stroke-linejoin="round"/><path d="M16 16v2" fill="none" stroke="currentColor" stroke-width="2" stroke-linecap="round" stroke-linejoin="round"/></symbol>
    <symbol id="password" viewBox="0 0 24 24"><path d="M4 10h16v10H4z" fill="none" stroke="currentColor" stroke-width="2" stroke-linecap="round" stroke-linejoin="round"/><path d="M12 10V7a3 3 0 0 1 6 0v3" fill="none" stroke="currentColor" stroke-width="2" stroke-linecap="round" stroke-linejoin="round"/><path d="M9 15h.01" fill="none" stroke="currentColor" stroke-width="2" stroke-linecap="round" stroke-linejoin="round"/><path d="M12 15h.01" fill="none" stroke="currentColor" stroke-width="2" stroke-linecap="round" stroke-linejoin="round"/><path d="M15 15h.01" fill="none" stroke="currentColor" stroke-width="2" stroke-linecap="round" stroke-linejoin="round"/></symbol>
    <symbol id="money-wavy" viewBox="0 0 24 24"><path d="M3 9c2 0 2-2 4-2s2 2 4 2 2-2 4-2 2 2 4 2 2-2 4-2" fill="none" stroke="currentColor" stroke-width="2" stroke-linecap="round" stroke-linejoin="round"/><path d="M3 15c2 0 2-2 4-2s2 2 4 2 2-2 4-2 2 2 4 2 2-2 4-2" fill="none" stroke="currentColor" stroke-width="2" stroke-linecap="round" stroke-linejoin="round"/></symbol>
    <symbol id="signature" viewBox="0 0 24 24"><path d="M3 16c2-2 4-5 6-5 1.8 0 .6 4.5 2.5 4.5 1.7 0 3.1-2.5 4.6-2.5 1.1 0 1.5 1.2 2.4 1.2 1 0 1.7-.7 2.5-1.4" fill="none" stroke="currentColor" stroke-width="2" stroke-linecap="round" stroke-linejoin="round"/><path d="M3 20h18" fill="none" stroke="currentColor" stroke-width="2" stroke-linecap="round" stroke-linejoin="round"/></symbol>
    <symbol id="test-tube" viewBox="0 0 24 24"><path d="M9 3h6" fill="none" stroke="currentColor" stroke-width="2" stroke-linecap="round" stroke-linejoin="round"/><path d="M10 3v7l-4.3 6.4A3 3 0 0 0 8.2 21h7.6a3 3 0 0 0 2.5-4.6L14 10V3" fill="none" stroke="currentColor" stroke-width="2" stroke-linecap="round" stroke-linejoin="round"/><path d="M9.5 14h5" fill="none" stroke="currentColor" stroke-width="2" stroke-linecap="round" stroke-linejoin="round"/></symbol>
    <symbol id="fa-linkedin" viewBox="0 0 24 24"><path d="M8 10v7" fill="none" stroke="currentColor" stroke-width="2" stroke-linecap="round" stroke-linejoin="round"/></symbol>
    <symbol id="fa-at" viewBox="0 0 24 24"><path d="M14 10a2 2 0 1 0 0 4c.6 0 1-.3 1.4-.7V10" fill="none" stroke="currentColor" stroke-width="2" stroke-linecap="round" stroke-linejoin="round"/><path d="M17.5 12a5.5 5.5 0 1 1-2-4.2" fill="none" stroke="currentColor" stroke-width="2" stroke-linecap="round" stroke-linejoin="round"/></symbol>
  </defs>
</svg>